<svg width="24" height="25" viewBox="0 0 24 25" fill="none" xmlns="http://www.w3.org/2000/svg">
<path d="M17.1527 15.5943H16.0686L15.6844 15.2238C17.0756 13.6102 17.8403 11.55 17.8388 9.41938C17.8388 7.6553 17.3157 5.93083 16.3356 4.46404C15.3555 2.99726 13.9625 1.85404 12.3327 1.17895C10.7029 0.503865 8.90949 0.327231 7.1793 0.671387C5.44911 1.01554 3.85983 1.86503 2.61243 3.11243C1.36503 4.35983 0.515544 5.94911 0.171387 7.6793C-0.172769 9.40949 0.00386463 11.2029 0.678951 12.8327C1.35404 14.4625 2.49726 15.8555 3.96404 16.8356C5.43083 17.8157 7.1553 18.3388 8.91938 18.3388C11.1286 18.3388 13.1595 17.5292 14.7238 16.1844L15.0943 16.5686V17.6527L21.9554 24.5L24 22.4554L17.1527 15.5943ZM8.91938 15.5943C5.50258 15.5943 2.74443 12.8362 2.74443 9.41938C2.74443 6.00258 5.50258 3.24443 8.91938 3.24443C12.3362 3.24443 15.0943 6.00258 15.0943 9.41938C15.0943 12.8362 12.3362 15.5943 8.91938 15.5943Z" fill="#585858"/>
</svg>
